<svg width="69" height="48" viewBox="0 0 69 48" fill="none" xmlns="http://www.w3.org/2000/svg">
<path d="M67.563 7.49577C66.7678 4.54374 64.4333 2.22389 61.4627 1.43368C56.0781 0 34.5 0 34.5 0C34.5 0 12.9219 0 7.54297 1.43368C4.57236 2.22389 2.2379 4.54374 1.44271 7.49577C0 12.841 0 24 0 24C0 24 0 35.159 1.44271 40.5042C2.2379 43.4563 4.57236 45.7761 7.54297 46.5663C12.9219 48 34.5 48 34.5 48C34.5 48 56.0781 48 61.457 46.5663C64.4276 45.7761 66.7621 43.4563 67.5573 40.5042C69 35.159 69 24 69 24C69 24 69 12.841 67.5573 7.49577H67.563Z" fill="#FF0000"/>
<path d="M27.1719 34L45.2852 23.9973L27.1719 14V34Z" fill="white"/>
</svg>
