<svg width="32" height="32" viewBox="0 0 32 32" fill="none" xmlns="http://www.w3.org/2000/svg">
<path d="M22.0625 2.19604H17.4569V21.7633C17.4569 24.3273 15.6147 25.9771 13.3738 25.9771C11.1329 25.9771 9.1414 24.3273 9.1414 21.7633C9.1414 18.8006 11.457 17.2363 14.5434 17.5604V12.6023C14.0956 12.5276 13.6468 12.5031 13.2736 12.5031C8.22029 12.5031 3.98788 16.5607 3.98788 21.5895C3.98788 26.9168 8.17021 31 13.2982 31C17.8046 31 22.584 27.6887 22.584 21.4402V11.2589C24.5754 13.2504 26.9902 13.873 29.5797 13.873V9.29195C26.3931 9.06806 22.8579 6.9764 22.0615 2.19702L22.0625 2.19604Z" fill="#282828"/>
</svg>
