<svg width="32" height="32" viewBox="0 0 32 32" fill="none" xmlns="http://www.w3.org/2000/svg">
<path d="M28.6537 8.97678V8.10084C27.3162 8.00657 25.9159 7.58627 24.6844 6.77612C25.8177 7.94274 27.2298 8.65272 28.6537 8.97678Z" fill="#2DCCD3"/>
<path d="M16.5015 1V20.582C16.5015 23.148 14.6543 24.7977 12.4085 24.7977C11.6632 24.7977 10.9561 24.6239 10.3414 24.3028C11.1221 25.2975 12.3535 25.8691 13.7047 25.8691C15.9506 25.8691 17.7977 24.2193 17.7977 21.6514V2.0694H21.3574C21.2602 1.72864 21.1807 1.37218 21.1198 1H16.5025H16.5015Z" fill="#2DCCD3"/>
<path d="M13.581 12.3843V11.4141C13.1313 11.3395 12.6815 11.3149 12.3093 11.3149C7.24223 11.3149 3 15.3745 3 20.4082C3 23.7127 4.61145 26.5379 7.05957 28.2102C5.35384 26.5202 4.29623 24.1555 4.29623 21.4776C4.29623 16.4518 8.52569 12.3951 13.582 12.3843H13.581Z" fill="#2DCCD3"/>
<path d="M24.6844 6.77605C23.5895 5.65166 22.7538 4.10305 22.4141 2.06934H21.3564C21.9604 4.26704 23.2036 5.80092 24.6844 6.77605Z" fill="#F1204A"/>
<path d="M28.6537 12.6838C26.5974 12.6838 24.6511 12.292 22.9365 11.1392C24.9329 13.1326 27.3555 13.7552 29.9499 13.7552V9.17026C29.5227 9.14178 29.0858 9.07795 28.6537 8.97681V12.6838Z" fill="#F1204A"/>
<path d="M10.3414 24.3038C9.79048 23.6085 9.46151 22.709 9.46151 21.6524C9.46151 18.6887 11.782 17.1224 14.8762 17.4474V12.4835C14.4265 12.4088 13.9767 12.3843 13.6026 12.3843H13.581V16.3751C10.4867 16.052 8.16626 17.6164 8.16626 20.582C8.16626 22.3162 9.05398 23.6311 10.3414 24.3028V24.3038Z" fill="#F1204A"/>
<path d="M21.6412 20.2589C21.6412 26.5123 16.8501 29.8255 12.3339 29.8255C10.3787 29.8255 8.56301 29.2363 7.05957 28.2101C8.74762 29.8825 11.071 30.8949 13.6301 30.8949C18.1463 30.8949 22.9375 27.5817 22.9375 21.3283V11.1391C22.4877 10.8357 22.0556 10.4812 21.6412 10.0677V20.2589Z" fill="#F1204A"/>
<path d="M21.3564 2.06934H17.7967V21.6513C17.7967 24.2193 15.9496 25.869 13.7037 25.869C12.3525 25.869 11.1211 25.2965 10.3404 24.3027C9.05301 23.632 8.16528 22.3161 8.16528 20.5819C8.16528 17.6163 10.4857 16.052 13.58 16.3751V12.3842C8.52371 12.395 4.29425 16.4526 4.29425 21.4775C4.29425 24.1554 5.35186 26.5201 7.05759 28.2101C8.56103 29.2353 10.3767 29.8255 12.3319 29.8255C16.8481 29.8255 21.6393 26.5122 21.6393 20.2589V10.0677C22.0537 10.4811 22.4857 10.8356 22.9355 11.1391C24.6501 12.2919 26.5964 12.6837 28.6527 12.6837V8.9767C27.2288 8.65362 25.8157 7.94266 24.6834 6.77605C23.2026 5.80092 21.9594 4.26803 21.3555 2.06934H21.3564Z" fill="black"/>
</svg>
